<svg xmlns="http://www.w3.org/2000/svg" viewBox="0 0 67 67"><defs><style>.cls-1{fill:#fff;opacity:0.5;}</style></defs><g id="Livello_2" data-name="Livello 2"><g id="Grafica"><rect class="cls-1" width="67" height="67"/><path d="M42.48,14.44a11,11,0,0,0-11,11,10.85,10.85,0,0,0,1,4.48l-5.36.63,1.56-10.92.42-3,.85-5.9a.69.69,0,0,0-.47-.75.68.68,0,0,0-.82.33L14.57,37a.72.72,0,0,0,0,.71.71.71,0,0,0,.66.29l11.65-1.37L24.09,56.35a.68.68,0,0,0,.47.76.71.71,0,0,0,.21,0,.68.68,0,0,0,.6-.37L36.89,35a11,11,0,1,0,5.59-20.52ZM26,52.62,28.4,35.89a.66.66,0,0,0-.19-.58.65.65,0,0,0-.57-.2L16.4,36.43,28,14.54l-.28,2-.43,2.95L25.56,31.28a.7.7,0,0,0,.19.58.73.73,0,0,0,.5.21h.08l6.79-.8a11.14,11.14,0,0,0,2.64,2.92ZM42.48,35.1a9.64,9.64,0,1,1,9.64-9.64A9.66,9.66,0,0,1,42.48,35.1Z"/><path d="M47.16,19.8l-3.71,3.71a2.27,2.27,0,0,0-1-.23,2.17,2.17,0,1,0,2.16,2.17,2.13,2.13,0,0,0-.23-1l3.71-3.71a.68.68,0,1,0-1-1Zm-4.68,6.45a.79.79,0,1,1,.78-.78A.78.78,0,0,1,42.48,26.25Z"/></g></g></svg>