<?xml version="1.0" encoding="UTF-8"?><svg xmlns="http://www.w3.org/2000/svg" viewBox="0 0 35.56 35.56"><defs><style>.d{fill:#f2f2f2;}.e{fill:#010101;}</style></defs><g id="a"/><g id="b"><g id="c"><rect class="d" x="0" width="35.56" height="35.56"/><g><path class="e" d="M13.96,25.22c-2,0-3.63-1.63-3.63-3.63v-7.63c0-2,1.63-3.63,3.63-3.63h7.63c2,0,3.63,1.63,3.63,3.63v7.63c0,2-1.63,3.63-3.63,3.63h-7.63Zm0-13.9c-1.45,0-2.63,1.18-2.63,2.63v7.63c0,1.45,1.18,2.63,2.63,2.63h7.63c1.45,0,2.63-1.18,2.63-2.63v-7.63c0-1.45-1.18-2.63-2.63-2.63h-7.63Z"/><path class="e" d="M17.78,9.18s-.07,0-.1-.01l-.1-.03-.1-.06-.08-.07-1.94-2.12c-.18-.2-.17-.52,.03-.7,.09-.08,.21-.13,.33-.13,.14,0,.27,.06,.37,.16l1.09,1.19v-2.9c0-.27,.22-.5,.5-.5s.5,.22,.5,.5v2.9l1.09-1.19c.09-.1,.23-.16,.37-.16,.12,0,.24,.05,.33,.13,.2,.18,.22,.5,.03,.7l-1.95,2.13-.08,.07-.09,.05-.09,.03s-.06,0-.09,0Z"/><path class="e" d="M17.78,31.54c-.27,0-.5-.22-.5-.5v-2.9l-1.09,1.19c-.09,.1-.23,.16-.37,.16-.12,0-.24-.05-.33-.13-.2-.18-.22-.5-.03-.7l1.96-2.14,.08-.07c.07-.05,.17-.08,.27-.08s.2,.03,.29,.09l.09,.08,1.94,2.12c.18,.2,.17,.52-.03,.7-.09,.08-.21,.13-.33,.13-.14,0-.27-.06-.37-.16l-1.09-1.19v2.9c0,.27-.22,.5-.5,.5Z"/><path class="e" d="M29.01,20.23c-.12,0-.24-.05-.34-.13l-2.13-1.95-.07-.08-.07-.16c-.01-.05-.02-.09-.02-.12,0-.03,0-.07,.01-.1l.03-.1,.06-.1,2.19-2.02c.09-.08,.21-.13,.33-.13,.14,0,.27,.06,.37,.16,.18,.2,.17,.52-.03,.7l-1.19,1.09h2.89c.27,0,.5,.22,.5,.5s-.22,.5-.5,.5h-2.89l1.19,1.09c.2,.18,.22,.5,.03,.7-.09,.1-.23,.16-.37,.16Z"/><path class="e" d="M6.55,20.23c-.14,0-.27-.06-.37-.16-.18-.2-.17-.52,.03-.7l1.19-1.09h-2.9c-.27,0-.5-.22-.5-.5s.22-.5,.5-.5h2.89l-1.19-1.09c-.2-.19-.22-.5-.03-.7,.09-.1,.23-.16,.37-.16,.12,0,.24,.05,.33,.13l2.14,1.95,.07,.08,.07,.16c.01,.06,.02,.09,.02,.12s0,.07-.01,.1l-.03,.1-.06,.1-.07,.08-2.12,1.94c-.09,.08-.21,.13-.33,.13Z"/></g></g></g></svg>