<svg xmlns="http://www.w3.org/2000/svg" viewBox="0 0 67 67"><defs><style>.cls-1{fill:#fff;opacity:0.5;}</style></defs><g id="Livello_2" data-name="Livello 2"><g id="Grafica"><rect class="cls-1" width="67" height="67"/><path d="M52.68,15.28c-18.79,0-34.09,12.34-34.09,27.5a.5.5,0,0,0,0,.13,60,60,0,0,0-5.83,7.87.82.82,0,0,0,.27,1.12.85.85,0,0,0,.43.12.84.84,0,0,0,.7-.39,58.1,58.1,0,0,1,6-8.05c10.85-.2,21-4.55,27.19-11.74,0,0,0,0,0-.06a.57.57,0,0,0,.08-.13.06.06,0,0,0,0,0,.67.67,0,0,0,.05-.19s0-.08,0-.12a.57.57,0,0,0,0-.18.31.31,0,0,0,0-.13,1,1,0,0,0-.08-.14l-.1-.12,0,0a.53.53,0,0,0-.1-.06s-.05-.05-.09-.06L41,27.69l9.44-.9h0a.71.71,0,0,0,.28-.09h0a.84.84,0,0,0,.35-.35A23,23,0,0,0,53.5,16.1.82.82,0,0,0,52.68,15.28ZM21.74,41.9a44.21,44.21,0,0,1,10.92-8.6.82.82,0,0,0-.77-1.44A46.48,46.48,0,0,0,20.31,41c1.11-13.23,14.75-23.76,31.53-24.11a21.22,21.22,0,0,1-2.05,8.28l-12,1.13s-.06,0-.1,0l-.15.05-.14.08a.52.52,0,0,0-.11.1.69.69,0,0,0-.11.13s0,.05,0,.08a.09.09,0,0,0,0,.05.75.75,0,0,0,0,.16.88.88,0,0,0,0,.16s0,0,0,.05a.54.54,0,0,1,0,.1.83.83,0,0,0,0,.15l.09.14.08.11a.91.91,0,0,0,.16.11l.07.06,7.85,3.67C39.76,37.6,31.11,41.36,21.74,41.9Z"/></g></g></svg>