<svg xmlns="http://www.w3.org/2000/svg" viewBox="0 0 67 67"><defs><style>.cls-1{fill:#fff;opacity:0.5;}.cls-2{fill-rule:evenodd;}</style></defs><g id="Livello_2" data-name="Livello 2"><g id="Grafica"><rect class="cls-1" width="67" height="67"/><path class="cls-2" d="M27.29,23.28a1.14,1.14,0,0,0,.34.78l4.72,4.71a1,1,0,0,0,.4.35l0,0a1.15,1.15,0,0,0,1.4-.34l4.74-4.74a1.13,1.13,0,0,0-1.56-1.63l0,0L34.4,25.39V16.14a1.13,1.13,0,1,0-2.25,0v9.28l-2.92-2.92a1.14,1.14,0,0,0-1.6,0A1.15,1.15,0,0,0,27.29,23.28Z"/><path class="cls-2" d="M39.26,44.72a1.1,1.1,0,0,0-.34-.78l-4.71-4.71a1.12,1.12,0,0,0-.4-.35l0,0a1.14,1.14,0,0,0-1.39.34l-4.74,4.74a1.13,1.13,0,0,0,1.56,1.63l0,0,2.93-2.92v9.25a1.13,1.13,0,1,0,2.25,0V42.61l2.92,2.92a1.12,1.12,0,0,0,1.93-.81Z"/><path class="cls-2" d="M8.74,33.66a.83.83,0,0,0,.84.81H57a.82.82,0,0,0,.83-.82.81.81,0,0,0-.81-.83H9.58a.83.83,0,0,0-.84.81Z"/></g></g></svg>